<svg width="44" height="44" viewBox="0 0 44 44" fill="none" xmlns="http://www.w3.org/2000/svg">
<g id="Heart">
<path id="Vector" d="M40.7392 17.1738C40.7392 28.9316 23.3057 38.4487 22.5633 38.8418C22.3676 38.9471 22.1489 39.0022 21.9267 39.0022C21.7045 39.0022 21.4858 38.9471 21.2901 38.8418C20.5477 38.4487 3.1142 28.9316 3.1142 17.1738C3.11731 14.4128 4.2155 11.7658 6.16784 9.81341C8.12018 7.86107 10.7672 6.76288 13.5283 6.75977C16.9968 6.75977 20.0337 8.25133 21.9267 10.7725C23.8197 8.25133 26.8566 6.75977 30.3251 6.75977C33.0862 6.76288 35.7332 7.86107 37.6855 9.81341C39.6379 11.7658 40.7361 14.4128 40.7392 17.1738Z" fill="#D92F2F"/>
</g>
</svg>
