<svg width="42" height="37" viewBox="0 0 42 37" fill="none" xmlns="http://www.w3.org/2000/svg">
<path id="Vector" d="M30.1434 0.917969C26.4199 0.917969 23.1598 2.5428 21.1277 5.28927C19.0955 2.5428 15.8354 0.917969 12.1119 0.917969C9.14794 0.921359 6.30632 2.11767 4.21047 4.24444C2.11463 6.37122 0.935714 9.25477 0.932373 12.2625C0.932373 25.0708 19.6473 35.4382 20.4443 35.8664C20.6543 35.9811 20.8891 36.0411 21.1277 36.0411C21.3662 36.0411 21.601 35.9811 21.8111 35.8664C22.6081 35.4382 41.323 25.0708 41.323 12.2625C41.3196 9.25477 40.1407 6.37122 38.0449 4.24444C35.949 2.11767 33.1074 0.921359 30.1434 0.917969ZM21.1277 32.9022C17.8351 30.9553 3.81742 22.0865 3.81742 12.2625C3.82028 10.0311 4.69508 7.89189 6.24998 6.31405C7.80488 4.7362 9.91295 3.84849 12.1119 3.84559C15.619 3.84559 18.5636 5.74122 19.7933 8.78594C19.902 9.05442 20.0869 9.28405 20.3245 9.44565C20.5621 9.60726 20.8416 9.69355 21.1277 9.69355C21.4137 9.69355 21.6933 9.60726 21.9309 9.44565C22.1684 9.28405 22.3533 9.05442 22.462 8.78594C23.6918 5.73573 26.6363 3.84559 30.1434 3.84559C32.3424 3.84849 34.4505 4.7362 36.0054 6.31405C37.5603 7.89189 38.4351 10.0311 38.4379 12.2625C38.4379 22.0718 24.4166 30.9535 21.1277 32.9022Z" fill="white" fill-opacity="0.8"/>
</svg>
