<svg width="261" height="166" viewBox="0 0 261 166" fill="none" xmlns="http://www.w3.org/2000/svg">
<g filter="url(#filter0_d_1929_8)">
<rect x="6.94043" y="7.2207" width="239" height="144" fill="#151515" stroke="white"/>
<rect x="28.2992" y="25.168" width="196.282" height="92.9675" rx="9.5" fill="url(#paint0_linear_1929_8)" stroke="black"/>
<mask id="path-3-outside-1_1929_8" maskUnits="userSpaceOnUse" x="84.7057" y="42.8867" width="78" height="15" fill="black">
<rect fill="white" x="84.7057" y="42.8867" width="78" height="15"/>
<path d="M86.4102 45.7617V44.2504H95.4159V45.7617H91.7852V55.8867H90.0352V45.7617H86.4102ZM97.6434 55.8867V47.1594H99.2854V48.5458H99.3763C99.5354 48.0761 99.8157 47.7068 100.217 47.4379C100.623 47.1651 101.081 47.0288 101.592 47.0288C101.698 47.0288 101.823 47.0326 101.967 47.0401C102.115 47.0477 102.23 47.0572 102.314 47.0685V48.6935C102.246 48.6746 102.124 48.6538 101.95 48.631C101.776 48.6045 101.602 48.5913 101.427 48.5913C101.026 48.5913 100.668 48.6765 100.354 48.8469C100.043 49.0136 99.7968 49.2466 99.6149 49.5458C99.4331 49.8413 99.3422 50.1784 99.3422 50.5572V55.8867H97.6434ZM107.526 56.0799C106.973 56.0799 106.473 55.9776 106.026 55.7731C105.579 55.5647 105.224 55.2636 104.963 54.8697C104.706 54.4757 104.577 53.9928 104.577 53.4208C104.577 52.9284 104.671 52.5231 104.861 52.2049C105.05 51.8867 105.306 51.6348 105.628 51.4492C105.95 51.2636 106.31 51.1235 106.707 51.0288C107.105 50.9341 107.51 50.8621 107.923 50.8129C108.446 50.7522 108.87 50.703 109.196 50.6651C109.522 50.6235 109.759 50.5572 109.906 50.4663C110.054 50.3754 110.128 50.2276 110.128 50.0231V49.9833C110.128 49.4871 109.988 49.1026 109.707 48.8299C109.431 48.5572 109.018 48.4208 108.469 48.4208C107.897 48.4208 107.446 48.5477 107.117 48.8015C106.791 49.0515 106.565 49.3299 106.44 49.6367L104.844 49.2731C105.033 48.7428 105.31 48.3147 105.673 47.989C106.041 47.6594 106.463 47.4208 106.94 47.2731C107.418 47.1216 107.92 47.0458 108.446 47.0458C108.795 47.0458 109.164 47.0875 109.554 47.1708C109.948 47.2504 110.315 47.3981 110.656 47.614C111.001 47.8299 111.283 48.1386 111.503 48.5401C111.723 48.9379 111.832 49.4549 111.832 50.0913V55.8867H110.173V54.6935H110.105C109.995 54.9132 109.831 55.1291 109.611 55.3413C109.391 55.5534 109.109 55.7295 108.764 55.8697C108.42 56.0098 108.007 56.0799 107.526 56.0799ZM107.895 54.7163C108.365 54.7163 108.766 54.6235 109.099 54.4379C109.437 54.2522 109.692 54.0098 109.867 53.7106C110.045 53.4076 110.134 53.0837 110.134 52.739V51.614C110.073 51.6746 109.956 51.7314 109.781 51.7844C109.611 51.8337 109.416 51.8772 109.196 51.9151C108.976 51.9492 108.762 51.9814 108.554 52.0117C108.346 52.0382 108.171 52.061 108.031 52.0799C107.702 52.1216 107.401 52.1916 107.128 52.2901C106.859 52.3886 106.643 52.5307 106.48 52.7163C106.321 52.8981 106.242 53.1405 106.242 53.4435C106.242 53.864 106.397 54.1822 106.707 54.3981C107.018 54.6102 107.414 54.7163 107.895 54.7163ZM119.051 56.0629C118.207 56.0629 117.479 55.8716 116.87 55.489C116.263 55.1026 115.798 54.5704 115.472 53.8924C115.146 53.2144 114.983 52.4379 114.983 51.5629C114.983 50.6765 115.15 49.8943 115.483 49.2163C115.817 48.5344 116.286 48.0022 116.892 47.6197C117.498 47.2371 118.212 47.0458 119.034 47.0458C119.697 47.0458 120.288 47.1689 120.807 47.4151C121.326 47.6576 121.745 47.9985 122.063 48.4379C122.385 48.8772 122.576 49.3905 122.637 49.9776H120.983C120.892 49.5685 120.684 49.2163 120.358 48.9208C120.036 48.6254 119.604 48.4776 119.063 48.4776C118.589 48.4776 118.174 48.6026 117.818 48.8526C117.466 49.0988 117.192 49.4511 116.995 49.9094C116.798 50.364 116.699 50.9019 116.699 51.5231C116.699 52.1594 116.796 52.7087 116.989 53.1708C117.182 53.6329 117.455 53.9909 117.807 54.2447C118.163 54.4985 118.582 54.6254 119.063 54.6254C119.385 54.6254 119.676 54.5666 119.938 54.4492C120.203 54.328 120.424 54.1557 120.603 53.9322C120.784 53.7087 120.911 53.4397 120.983 53.1254H122.637C122.576 53.6897 122.392 54.1935 122.085 54.6367C121.779 55.0799 121.368 55.4284 120.853 55.6822C120.341 55.936 119.741 56.0629 119.051 56.0629ZM127.296 52.9265L127.284 50.8526H127.58L131.057 47.1594H133.091L129.125 51.364H128.858L127.296 52.9265ZM125.733 55.8867V44.2504H127.432V55.8867H125.733ZM131.245 55.8867L128.12 51.739L129.29 50.5515L133.33 55.8867H131.245ZM145.462 56.0799C144.565 56.0761 143.798 55.8394 143.161 55.3697C142.525 54.9 142.038 54.2163 141.701 53.3185C141.364 52.4208 141.195 51.3394 141.195 50.0742C141.195 48.8129 141.364 47.7352 141.701 46.8413C142.042 45.9473 142.531 45.2655 143.167 44.7958C143.807 44.3261 144.572 44.0913 145.462 44.0913C146.353 44.0913 147.116 44.328 147.752 44.8015C148.389 45.2712 148.875 45.953 149.212 46.8469C149.553 47.7371 149.724 48.8129 149.724 50.0742C149.724 51.3432 149.555 52.4265 149.218 53.3242C148.881 54.2182 148.394 54.9019 147.758 55.3754C147.121 55.8451 146.356 56.0799 145.462 56.0799ZM145.462 54.5629C146.25 54.5629 146.866 54.1784 147.309 53.4094C147.756 52.6405 147.979 51.5288 147.979 50.0742C147.979 49.1083 147.877 48.292 147.673 47.6254C147.472 46.9549 147.182 46.4473 146.803 46.1026C146.428 45.7541 145.981 45.5799 145.462 45.5799C144.678 45.5799 144.063 45.9663 143.616 46.739C143.169 47.5117 142.943 48.6235 142.94 50.0742C142.94 51.0439 143.04 51.864 143.241 52.5344C143.445 53.2011 143.735 53.7068 144.11 54.0515C144.485 54.3924 144.936 54.5629 145.462 54.5629ZM152.775 53.614V52.1935L157.803 44.2504H158.923V46.3413H158.213L154.616 52.0344V52.1254H161.508V53.614H152.775ZM158.292 55.8867V53.1822L158.303 52.5344V44.2504H159.968V55.8867H158.292Z"/>
</mask>
<path d="M86.4102 45.7617V44.2504H95.4159V45.7617H91.7852V55.8867H90.0352V45.7617H86.4102ZM97.6434 55.8867V47.1594H99.2854V48.5458H99.3763C99.5354 48.0761 99.8157 47.7068 100.217 47.4379C100.623 47.1651 101.081 47.0288 101.592 47.0288C101.698 47.0288 101.823 47.0326 101.967 47.0401C102.115 47.0477 102.23 47.0572 102.314 47.0685V48.6935C102.246 48.6746 102.124 48.6538 101.95 48.631C101.776 48.6045 101.602 48.5913 101.427 48.5913C101.026 48.5913 100.668 48.6765 100.354 48.8469C100.043 49.0136 99.7968 49.2466 99.6149 49.5458C99.4331 49.8413 99.3422 50.1784 99.3422 50.5572V55.8867H97.6434ZM107.526 56.0799C106.973 56.0799 106.473 55.9776 106.026 55.7731C105.579 55.5647 105.224 55.2636 104.963 54.8697C104.706 54.4757 104.577 53.9928 104.577 53.4208C104.577 52.9284 104.671 52.5231 104.861 52.2049C105.05 51.8867 105.306 51.6348 105.628 51.4492C105.95 51.2636 106.31 51.1235 106.707 51.0288C107.105 50.9341 107.51 50.8621 107.923 50.8129C108.446 50.7522 108.87 50.703 109.196 50.6651C109.522 50.6235 109.759 50.5572 109.906 50.4663C110.054 50.3754 110.128 50.2276 110.128 50.0231V49.9833C110.128 49.4871 109.988 49.1026 109.707 48.8299C109.431 48.5572 109.018 48.4208 108.469 48.4208C107.897 48.4208 107.446 48.5477 107.117 48.8015C106.791 49.0515 106.565 49.3299 106.44 49.6367L104.844 49.2731C105.033 48.7428 105.31 48.3147 105.673 47.989C106.041 47.6594 106.463 47.4208 106.94 47.2731C107.418 47.1216 107.92 47.0458 108.446 47.0458C108.795 47.0458 109.164 47.0875 109.554 47.1708C109.948 47.2504 110.315 47.3981 110.656 47.614C111.001 47.8299 111.283 48.1386 111.503 48.5401C111.723 48.9379 111.832 49.4549 111.832 50.0913V55.8867H110.173V54.6935H110.105C109.995 54.9132 109.831 55.1291 109.611 55.3413C109.391 55.5534 109.109 55.7295 108.764 55.8697C108.42 56.0098 108.007 56.0799 107.526 56.0799ZM107.895 54.7163C108.365 54.7163 108.766 54.6235 109.099 54.4379C109.437 54.2522 109.692 54.0098 109.867 53.7106C110.045 53.4076 110.134 53.0837 110.134 52.739V51.614C110.073 51.6746 109.956 51.7314 109.781 51.7844C109.611 51.8337 109.416 51.8772 109.196 51.9151C108.976 51.9492 108.762 51.9814 108.554 52.0117C108.346 52.0382 108.171 52.061 108.031 52.0799C107.702 52.1216 107.401 52.1916 107.128 52.2901C106.859 52.3886 106.643 52.5307 106.48 52.7163C106.321 52.8981 106.242 53.1405 106.242 53.4435C106.242 53.864 106.397 54.1822 106.707 54.3981C107.018 54.6102 107.414 54.7163 107.895 54.7163ZM119.051 56.0629C118.207 56.0629 117.479 55.8716 116.87 55.489C116.263 55.1026 115.798 54.5704 115.472 53.8924C115.146 53.2144 114.983 52.4379 114.983 51.5629C114.983 50.6765 115.15 49.8943 115.483 49.2163C115.817 48.5344 116.286 48.0022 116.892 47.6197C117.498 47.2371 118.212 47.0458 119.034 47.0458C119.697 47.0458 120.288 47.1689 120.807 47.4151C121.326 47.6576 121.745 47.9985 122.063 48.4379C122.385 48.8772 122.576 49.3905 122.637 49.9776H120.983C120.892 49.5685 120.684 49.2163 120.358 48.9208C120.036 48.6254 119.604 48.4776 119.063 48.4776C118.589 48.4776 118.174 48.6026 117.818 48.8526C117.466 49.0988 117.192 49.4511 116.995 49.9094C116.798 50.364 116.699 50.9019 116.699 51.5231C116.699 52.1594 116.796 52.7087 116.989 53.1708C117.182 53.6329 117.455 53.9909 117.807 54.2447C118.163 54.4985 118.582 54.6254 119.063 54.6254C119.385 54.6254 119.676 54.5666 119.938 54.4492C120.203 54.328 120.424 54.1557 120.603 53.9322C120.784 53.7087 120.911 53.4397 120.983 53.1254H122.637C122.576 53.6897 122.392 54.1935 122.085 54.6367C121.779 55.0799 121.368 55.4284 120.853 55.6822C120.341 55.936 119.741 56.0629 119.051 56.0629ZM127.296 52.9265L127.284 50.8526H127.58L131.057 47.1594H133.091L129.125 51.364H128.858L127.296 52.9265ZM125.733 55.8867V44.2504H127.432V55.8867H125.733ZM131.245 55.8867L128.12 51.739L129.29 50.5515L133.33 55.8867H131.245ZM145.462 56.0799C144.565 56.0761 143.798 55.8394 143.161 55.3697C142.525 54.9 142.038 54.2163 141.701 53.3185C141.364 52.4208 141.195 51.3394 141.195 50.0742C141.195 48.8129 141.364 47.7352 141.701 46.8413C142.042 45.9473 142.531 45.2655 143.167 44.7958C143.807 44.3261 144.572 44.0913 145.462 44.0913C146.353 44.0913 147.116 44.328 147.752 44.8015C148.389 45.2712 148.875 45.953 149.212 46.8469C149.553 47.7371 149.724 48.8129 149.724 50.0742C149.724 51.3432 149.555 52.4265 149.218 53.3242C148.881 54.2182 148.394 54.9019 147.758 55.3754C147.121 55.8451 146.356 56.0799 145.462 56.0799ZM145.462 54.5629C146.25 54.5629 146.866 54.1784 147.309 53.4094C147.756 52.6405 147.979 51.5288 147.979 50.0742C147.979 49.1083 147.877 48.292 147.673 47.6254C147.472 46.9549 147.182 46.4473 146.803 46.1026C146.428 45.7541 145.981 45.5799 145.462 45.5799C144.678 45.5799 144.063 45.9663 143.616 46.739C143.169 47.5117 142.943 48.6235 142.94 50.0742C142.94 51.0439 143.04 51.864 143.241 52.5344C143.445 53.2011 143.735 53.7068 144.11 54.0515C144.485 54.3924 144.936 54.5629 145.462 54.5629ZM152.775 53.614V52.1935L157.803 44.2504H158.923V46.3413H158.213L154.616 52.0344V52.1254H161.508V53.614H152.775ZM158.292 55.8867V53.1822L158.303 52.5344V44.2504H159.968V55.8867H158.292Z" fill="white"/>
<path d="M86.4102 45.7617H85.4102V46.7617H86.4102V45.7617ZM86.4102 44.2504V43.2504H85.4102V44.2504H86.4102ZM95.4159 44.2504H96.4159V43.2504H95.4159V44.2504ZM95.4159 45.7617V46.7617H96.4159V45.7617H95.4159ZM91.7852 45.7617V44.7617H90.7852V45.7617H91.7852ZM91.7852 55.8867V56.8867H92.7852V55.8867H91.7852ZM90.0352 55.8867H89.0352V56.8867H90.0352V55.8867ZM90.0352 45.7617H91.0352V44.7617H90.0352V45.7617ZM87.4102 45.7617V44.2504H85.4102V45.7617H87.4102ZM86.4102 45.2504H95.4159V43.2504H86.4102V45.2504ZM94.4159 44.2504V45.7617H96.4159V44.2504H94.4159ZM95.4159 44.7617H91.7852V46.7617H95.4159V44.7617ZM90.7852 45.7617V55.8867H92.7852V45.7617H90.7852ZM91.7852 54.8867H90.0352V56.8867H91.7852V54.8867ZM91.0352 55.8867V45.7617H89.0352V55.8867H91.0352ZM90.0352 44.7617H86.4102V46.7617H90.0352V44.7617ZM97.6434 55.8867H96.6434V56.8867H97.6434V55.8867ZM97.6434 47.1594V46.1594H96.6434V47.1594H97.6434ZM99.2854 47.1594H100.285V46.1594H99.2854V47.1594ZM99.2854 48.5458H98.2854V49.5458H99.2854V48.5458ZM99.3763 48.5458V49.5458H100.093L100.323 48.8666L99.3763 48.5458ZM100.217 47.4379L100.774 48.2687L100.775 48.2675L100.217 47.4379ZM101.967 47.0401L101.915 48.0387L101.916 48.0388L101.967 47.0401ZM102.314 47.0685H103.314V46.1956L102.449 46.0777L102.314 47.0685ZM102.314 48.6935L102.046 49.6571L103.314 50.0092V48.6935H102.314ZM101.95 48.631L101.8 49.6197L101.81 49.6213L101.821 49.6226L101.95 48.631ZM100.354 48.8469L100.826 49.7281L100.83 49.7261L100.354 48.8469ZM99.6149 49.5458L100.467 50.0699L100.47 50.0651L99.6149 49.5458ZM99.3422 55.8867V56.8867H100.342V55.8867H99.3422ZM98.6434 55.8867V47.1594H96.6434V55.8867H98.6434ZM97.6434 48.1594H99.2854V46.1594H97.6434V48.1594ZM98.2854 47.1594V48.5458H100.285V47.1594H98.2854ZM99.2854 49.5458H99.3763V47.5458H99.2854V49.5458ZM100.323 48.8666C100.414 48.5994 100.56 48.4118 100.774 48.2687L99.6607 46.607C99.0713 47.0018 98.6568 47.5528 98.4292 48.225L100.323 48.8666ZM100.775 48.2675C101.008 48.1112 101.27 48.0288 101.592 48.0288V46.0288C100.892 46.0288 100.237 46.2191 99.6589 46.6082L100.775 48.2675ZM101.592 48.0288C101.676 48.0288 101.782 48.0318 101.915 48.0387L102.02 46.0415C101.864 46.0333 101.721 46.0288 101.592 46.0288V48.0288ZM101.916 48.0388C102.053 48.0459 102.136 48.0536 102.179 48.0594L102.449 46.0777C102.325 46.0607 102.177 46.0496 102.018 46.0414L101.916 48.0388ZM101.314 47.0685V48.6935H103.314V47.0685H101.314ZM102.581 47.73C102.437 47.69 102.252 47.6619 102.08 47.6394L101.821 49.6226C101.9 49.6329 101.959 49.6419 102.002 49.6493C102.05 49.6575 102.06 49.6608 102.046 49.6571L102.581 47.73ZM102.101 47.6424C101.877 47.6084 101.653 47.5913 101.427 47.5913V49.5913C101.551 49.5913 101.675 49.6006 101.8 49.6197L102.101 47.6424ZM101.427 47.5913C100.88 47.5913 100.355 47.7087 99.877 47.9678L100.83 49.7261C100.981 49.6443 101.172 49.5913 101.427 49.5913V47.5913ZM99.8808 47.9658C99.414 48.2163 99.0355 48.5737 98.7603 49.0265L100.47 50.0651C100.558 49.9194 100.672 49.811 100.826 49.7281L99.8808 47.9658ZM98.7633 49.0217C98.4757 49.4891 98.3422 50.0109 98.3422 50.5572H100.342C100.342 50.3458 100.391 50.1934 100.467 50.0699L98.7633 49.0217ZM98.3422 50.5572V55.8867H100.342V50.5572H98.3422ZM99.3422 54.8867H97.6434V56.8867H99.3422V54.8867ZM106.026 55.7731L105.603 56.6795L105.61 56.6824L106.026 55.7731ZM104.963 54.8697L104.126 55.4169L104.13 55.4225L104.963 54.8697ZM104.861 52.2049L105.72 52.7164L105.72 52.7164L104.861 52.2049ZM105.628 51.4492L106.127 52.3156L106.127 52.3156L105.628 51.4492ZM107.923 50.8129L107.808 49.8195L107.805 49.8199L107.923 50.8129ZM109.196 50.6651L109.312 51.6585L109.323 51.657L109.196 50.6651ZM109.906 50.4663L110.43 51.3179L110.43 51.3179L109.906 50.4663ZM109.707 48.8299L109.005 49.5419L109.01 49.5466L109.707 48.8299ZM107.117 48.8015L107.725 49.5948L107.727 49.5938L107.117 48.8015ZM106.44 49.6367L106.218 50.6117L107.046 50.8003L107.366 50.014L106.44 49.6367ZM104.844 49.2731L103.902 48.9367L103.523 49.9979L104.622 50.2481L104.844 49.2731ZM105.673 47.989L106.341 48.7338L106.341 48.7334L105.673 47.989ZM106.94 47.2731L107.236 48.2284L107.243 48.2262L106.94 47.2731ZM109.554 47.1708L109.345 48.1488L109.356 48.151L109.554 47.1708ZM110.656 47.614L110.121 48.4588L110.125 48.4615L110.656 47.614ZM111.503 48.5401L110.626 49.0201L110.628 49.0236L111.503 48.5401ZM111.832 55.8867V56.8867H112.832V55.8867H111.832ZM110.173 55.8867H109.173V56.8867H110.173V55.8867ZM110.173 54.6935H111.173V53.6935H110.173V54.6935ZM110.105 54.6935V53.6935H109.487L109.211 54.2463L110.105 54.6935ZM109.611 55.3413L108.916 54.6219L108.916 54.6219L109.611 55.3413ZM108.764 55.8697L108.388 54.9433L108.764 55.8697ZM109.099 54.4379L108.617 53.5618L108.613 53.5642L109.099 54.4379ZM109.867 53.7106L109.004 53.204L109.002 53.2074L109.867 53.7106ZM110.134 51.614H111.134V49.1998L109.426 50.9069L110.134 51.614ZM109.781 51.7844L110.059 52.7452L110.066 52.7432L110.072 52.7411L109.781 51.7844ZM109.196 51.9151L109.349 52.9033L109.358 52.902L109.366 52.9006L109.196 51.9151ZM108.554 52.0117L108.68 53.0037L108.689 53.0026L108.698 53.0013L108.554 52.0117ZM108.031 52.0799L108.157 53.072L108.165 53.0709L108.031 52.0799ZM107.128 52.2901L106.788 51.3496L106.784 51.3511L107.128 52.2901ZM106.48 52.7163L105.729 52.0567L105.728 52.0578L106.48 52.7163ZM106.707 54.3981L106.137 55.2192L106.143 55.2239L106.707 54.3981ZM107.526 55.0799C107.098 55.0799 106.743 55.0015 106.442 54.8638L105.61 56.6824C106.203 56.9538 106.847 57.0799 107.526 57.0799V55.0799ZM106.448 54.8667C106.16 54.7326 105.951 54.5506 105.796 54.3168L104.13 55.4225C104.497 55.9767 104.997 56.3969 105.603 56.6795L106.448 54.8667ZM105.8 54.3224C105.67 54.1232 105.577 53.8406 105.577 53.4208H103.577C103.577 54.145 103.741 54.8282 104.126 55.4169L105.8 54.3224ZM105.577 53.4208C105.577 53.0508 105.648 52.8369 105.72 52.7164L104.002 51.6934C103.694 52.2093 103.577 52.806 103.577 53.4208H105.577ZM105.72 52.7164C105.822 52.5459 105.953 52.416 106.127 52.3156L105.128 50.5829C104.659 50.8537 104.279 51.2275 104.002 51.6934L105.72 52.7164ZM106.127 52.3156C106.358 52.1828 106.626 52.0761 106.939 52.0016L106.476 50.056C105.993 50.1708 105.542 50.3445 105.128 50.5829L106.127 52.3156ZM106.939 52.0016C107.299 51.9159 107.666 51.8506 108.042 51.8058L107.805 49.8199C107.355 49.8736 106.911 49.9522 106.476 50.056L106.939 52.0016ZM108.039 51.8062C108.561 51.7456 108.986 51.6963 109.312 51.6584L109.081 49.6718C108.755 49.7097 108.331 49.7589 107.808 49.8195L108.039 51.8062ZM109.323 51.657C109.686 51.6106 110.097 51.5234 110.43 51.3179L109.382 49.6146C109.413 49.5957 109.411 49.6036 109.348 49.6212C109.289 49.6377 109.199 49.6566 109.069 49.6732L109.323 51.657ZM110.43 51.3179C110.931 51.0098 111.128 50.5019 111.128 50.0231H109.128C109.128 50.0064 109.131 49.9342 109.178 49.8401C109.229 49.7387 109.306 49.6617 109.382 49.6146L110.43 51.3179ZM111.128 50.0231V49.9833H109.128V50.0231H111.128ZM111.128 49.9833C111.128 49.2937 110.927 48.6216 110.405 48.1132L109.01 49.5466C109.048 49.5836 109.128 49.6805 109.128 49.9833H111.128ZM110.41 48.1179C109.88 47.5957 109.171 47.4208 108.469 47.4208V49.4208C108.865 49.4208 108.982 49.5187 109.005 49.5419L110.41 48.1179ZM108.469 47.4208C107.758 47.4208 107.066 47.5782 106.506 48.0092L107.727 49.5938C107.826 49.5172 108.036 49.4208 108.469 49.4208V47.4208ZM106.508 48.0082C106.075 48.3406 105.721 48.7532 105.514 49.2594L107.366 50.014C107.41 49.9066 107.507 49.7624 107.725 49.5948L106.508 48.0082ZM106.662 48.6617L105.066 48.2981L104.622 50.2481L106.218 50.6117L106.662 48.6617ZM105.786 49.6094C105.928 49.2118 106.119 48.9324 106.341 48.7338L105.006 47.2442C104.501 47.6971 104.139 48.2738 103.902 48.9367L105.786 49.6094ZM106.341 48.7334C106.6 48.5014 106.895 48.334 107.236 48.2284L106.645 46.3178C106.031 46.5076 105.482 46.8175 105.006 47.2446L106.341 48.7334ZM107.243 48.2262C107.617 48.1073 108.017 48.0458 108.446 48.0458V46.0458C107.822 46.0458 107.218 46.1358 106.638 46.32L107.243 48.2262ZM108.446 48.0458C108.715 48.0458 109.014 48.078 109.345 48.1488L109.763 46.1929C109.314 46.0969 108.874 46.0458 108.446 46.0458V48.0458ZM109.356 48.151C109.63 48.2063 109.883 48.308 110.121 48.4588L111.191 46.7692C110.748 46.4882 110.266 46.2944 109.752 46.1906L109.356 48.151ZM110.125 48.4615C110.308 48.5756 110.478 48.7496 110.626 49.0201L112.38 48.0601C112.089 47.5276 111.694 47.0842 111.187 46.7665L110.125 48.4615ZM110.628 49.0236C110.739 49.2259 110.832 49.5599 110.832 50.0913H112.832C112.832 49.3499 112.706 48.6499 112.378 48.0566L110.628 49.0236ZM110.832 50.0913V55.8867H112.832V50.0913H110.832ZM111.832 54.8867H110.173V56.8867H111.832V54.8867ZM111.173 55.8867V54.6935H109.173V55.8867H111.173ZM110.173 53.6935H110.105V55.6935H110.173V53.6935ZM109.211 54.2463C109.162 54.3434 109.073 54.4701 108.916 54.6219L110.305 56.0607C110.588 55.7882 110.828 55.4831 111 55.1408L109.211 54.2463ZM108.916 54.6219C108.806 54.7283 108.639 54.841 108.388 54.9433L109.141 56.796C109.579 56.618 109.976 56.3785 110.305 56.0607L108.916 54.6219ZM108.388 54.9433C108.192 55.0229 107.914 55.0799 107.526 55.0799V57.0799C108.1 57.0799 108.647 56.9968 109.141 56.796L108.388 54.9433ZM107.895 55.7163C108.496 55.7163 109.073 55.5971 109.586 55.3115L108.613 53.5642C108.459 53.6499 108.233 53.7163 107.895 53.7163V55.7163ZM109.582 55.3139C110.059 55.0509 110.455 54.6866 110.731 54.2138L109.002 53.2074C108.929 53.3331 108.814 53.4536 108.617 53.5618L109.582 55.3139ZM110.729 54.2171C110.995 53.7637 111.134 53.2654 111.134 52.739H109.134C109.134 52.9019 109.094 53.0514 109.004 53.204L110.729 54.2171ZM111.134 52.739V51.614H109.134V52.739H111.134ZM109.426 50.9069C109.469 50.8644 109.506 50.8379 109.527 50.824C109.549 50.8097 109.563 50.8029 109.565 50.8019C109.567 50.8007 109.562 50.8031 109.549 50.8081C109.536 50.8131 109.516 50.8198 109.49 50.8278L110.072 52.7411C110.265 52.6826 110.593 52.5692 110.841 52.3211L109.426 50.9069ZM109.504 50.8237C109.376 50.8606 109.218 50.8965 109.026 50.9297L109.366 52.9006C109.613 52.858 109.845 52.8068 110.059 52.7452L109.504 50.8237ZM109.043 50.927C108.826 50.9606 108.615 50.9923 108.41 51.0221L108.698 53.0013C108.91 52.9705 109.127 52.9379 109.349 52.9033L109.043 50.927ZM108.428 51.0197C108.218 51.0464 108.041 51.0695 107.897 51.0889L108.165 53.0709C108.302 53.0524 108.473 53.03 108.68 53.0037L108.428 51.0197ZM107.906 51.0878C107.514 51.1374 107.139 51.2228 106.788 51.3496L107.468 53.2307C107.662 53.1605 107.89 53.1057 108.157 53.072L107.906 51.0878ZM106.784 51.3511C106.383 51.4979 106.018 51.7265 105.729 52.0567L107.232 53.3759C107.268 53.3348 107.335 53.2793 107.472 53.2291L106.784 51.3511ZM105.728 52.0578C105.372 52.4647 105.242 52.962 105.242 53.4435H107.242C107.242 53.3786 107.25 53.35 107.251 53.3462C107.252 53.3445 107.251 53.3478 107.247 53.3543C107.244 53.3608 107.239 53.368 107.233 53.3748L105.728 52.0578ZM105.242 53.4435C105.242 54.1489 105.524 54.7933 106.137 55.2192L107.278 53.577C107.263 53.5667 107.258 53.5605 107.257 53.5596C107.257 53.559 107.257 53.5594 107.257 53.5589C107.256 53.5581 107.253 53.5509 107.249 53.5339C107.246 53.5164 107.242 53.4872 107.242 53.4435H105.242ZM106.143 55.2239C106.661 55.5774 107.269 55.7163 107.895 55.7163V53.7163C107.559 53.7163 107.375 53.643 107.271 53.5723L106.143 55.2239ZM116.87 55.489L116.332 56.3322L116.338 56.3361L116.87 55.489ZM115.483 49.2163L116.381 49.6575L116.382 49.6555L115.483 49.2163ZM116.892 47.6197L116.358 46.7741L116.358 46.7741L116.892 47.6197ZM120.807 47.4151L120.378 48.3186L120.384 48.3211L120.807 47.4151ZM122.063 48.4379L121.253 49.0244L121.256 49.0289L122.063 48.4379ZM122.637 49.9776V50.9776H123.745L123.631 49.8749L122.637 49.9776ZM120.983 49.9776L120.007 50.1946L120.181 50.9776H120.983V49.9776ZM120.358 48.9208L119.682 49.6576L119.686 49.6615L120.358 48.9208ZM117.818 48.8526L118.391 49.6723L118.393 49.671L117.818 48.8526ZM116.995 49.9094L117.912 50.3071L117.913 50.3043L116.995 49.9094ZM116.989 53.1708L117.911 52.7851L117.911 52.7851L116.989 53.1708ZM117.807 54.2447L117.223 55.0561L117.227 55.059L117.807 54.2447ZM119.938 54.4492L120.348 55.3614L120.353 55.3587L119.938 54.4492ZM120.603 53.9322L119.827 53.3011L119.82 53.3091L120.603 53.9322ZM120.983 53.1254V52.1254H120.186L120.008 52.9022L120.983 53.1254ZM122.637 53.1254L123.631 53.2321L123.75 52.1254H122.637V53.1254ZM122.085 54.6367L122.908 55.2059L122.908 55.2059L122.085 54.6367ZM120.853 55.6822L120.411 54.7851L120.408 54.7864L120.853 55.6822ZM119.051 55.0629C118.362 55.0629 117.826 54.9083 117.401 54.6419L116.338 56.3361C117.133 56.8348 118.052 57.0629 119.051 57.0629V55.0629ZM117.407 54.6458C116.966 54.3643 116.622 53.9776 116.373 53.4593L114.57 54.3255C114.973 55.1632 115.561 55.8409 116.332 56.3322L117.407 54.6458ZM116.373 53.4593C116.122 52.9368 115.983 52.3123 115.983 51.5629H113.983C113.983 52.5634 114.17 53.4919 114.57 54.3255L116.373 53.4593ZM115.983 51.5629C115.983 50.8031 116.126 50.1764 116.381 49.6575L114.586 48.7751C114.174 49.6122 113.983 50.5499 113.983 51.5629H115.983ZM116.382 49.6555C116.638 49.1301 116.986 48.7429 117.426 48.4653L116.358 46.7741C115.586 47.2616 114.995 47.9388 114.585 48.7771L116.382 49.6555ZM117.426 48.4653C117.85 48.1977 118.373 48.0458 119.034 48.0458V46.0458C118.052 46.0458 117.147 46.2765 116.358 46.7741L117.426 48.4653ZM119.034 48.0458C119.572 48.0458 120.013 48.145 120.378 48.3186L121.236 46.5117C120.564 46.1928 119.823 46.0458 119.034 46.0458V48.0458ZM120.384 48.3211C120.758 48.4958 121.04 48.7303 121.253 49.0244L122.873 47.8513C122.449 47.2666 121.894 46.8193 121.23 46.5091L120.384 48.3211ZM121.256 49.0289C121.464 49.3132 121.598 49.6546 121.642 50.0803L123.631 49.8749C123.554 49.1265 123.305 48.4413 122.869 47.8468L121.256 49.0289ZM122.637 48.9776H120.983V50.9776H122.637V48.9776ZM121.959 49.7607C121.821 49.1394 121.501 48.6072 121.03 48.1801L119.686 49.6615C119.867 49.8253 119.963 49.9977 120.007 50.1946L121.959 49.7607ZM121.034 48.184C120.486 47.6812 119.792 47.4776 119.063 47.4776V49.4776C119.417 49.4776 119.586 49.5695 119.682 49.6576L121.034 48.184ZM119.063 47.4776C118.403 47.4776 117.783 47.6555 117.244 48.0342L118.393 49.671C118.566 49.5497 118.776 49.4776 119.063 49.4776V47.4776ZM117.246 48.033C116.718 48.402 116.334 48.9132 116.076 49.5146L117.913 50.3043C118.049 49.989 118.215 49.7956 118.391 49.6723L117.246 48.033ZM116.077 49.5118C115.814 50.1194 115.699 50.7987 115.699 51.5231H117.699C117.699 51.005 117.781 50.6086 117.912 50.3071L116.077 49.5118ZM115.699 51.5231C115.699 52.2574 115.81 52.944 116.066 53.5565L117.911 52.7851C117.781 52.4734 117.699 52.0615 117.699 51.5231H115.699ZM116.066 53.5565C116.32 54.1623 116.699 54.6786 117.223 55.056L118.392 53.4333C118.211 53.3032 118.045 53.1035 117.911 52.7851L116.066 53.5565ZM117.227 55.059C117.769 55.4457 118.395 55.6254 119.063 55.6254V53.6254C118.768 53.6254 118.557 53.5513 118.387 53.4304L117.227 55.059ZM119.063 55.6254C119.508 55.6254 119.942 55.5435 120.348 55.3614L119.528 53.5371C119.41 53.5898 119.261 53.6254 119.063 53.6254V55.6254ZM120.353 55.3587C120.759 55.1735 121.107 54.9042 121.385 54.5553L119.82 53.3091C119.742 53.4071 119.647 53.4825 119.522 53.5397L120.353 55.3587ZM121.378 54.5633C121.668 54.2073 121.856 53.7943 121.958 53.3485L120.008 52.9022C119.967 53.0852 119.901 53.2101 119.827 53.3011L121.378 54.5633ZM120.983 54.1254H122.637V52.1254H120.983V54.1254ZM121.642 53.0186C121.599 53.426 121.47 53.769 121.263 54.0675L122.908 55.2059C123.315 54.618 123.553 53.9535 123.631 53.2321L121.642 53.0186ZM121.263 54.0675C121.06 54.3617 120.783 54.6014 120.411 54.7851L121.294 56.5792C121.952 56.2553 122.498 55.7981 122.908 55.2059L121.263 54.0675ZM120.408 54.7864C120.061 54.9588 119.618 55.0629 119.051 55.0629V57.0629C119.863 57.0629 120.622 56.9131 121.297 56.5779L120.408 54.7864ZM127.296 52.9265L126.296 52.932L126.309 55.3276L128.003 53.6336L127.296 52.9265ZM127.284 50.8526V49.8526H126.279L126.285 50.8581L127.284 50.8526ZM127.58 50.8526V51.8526H128.012L128.308 51.5381L127.58 50.8526ZM131.057 47.1594V46.1594H130.625L130.329 46.4739L131.057 47.1594ZM133.091 47.1594L133.819 47.8456L135.409 46.1594H133.091V47.1594ZM129.125 51.364V52.364H129.557L129.853 52.0502L129.125 51.364ZM128.858 51.364V50.364H128.444L128.151 50.6569L128.858 51.364ZM125.733 55.8867H124.733V56.8867H125.733V55.8867ZM125.733 44.2504V43.2504H124.733V44.2504H125.733ZM127.432 44.2504H128.432V43.2504H127.432V44.2504ZM127.432 55.8867V56.8867H128.432V55.8867H127.432ZM131.245 55.8867L130.446 56.4885L130.746 56.8867H131.245V55.8867ZM128.12 51.739L127.408 51.037L126.802 51.6516L127.321 52.3407L128.12 51.739ZM129.29 50.5515L130.087 49.9478L129.39 49.0261L128.578 49.8495L129.29 50.5515ZM133.33 55.8867V56.8867H135.341L134.127 55.2831L133.33 55.8867ZM128.296 52.921L128.284 50.8471L126.285 50.8581L126.296 52.932L128.296 52.921ZM127.284 51.8526H127.58V49.8526H127.284V51.8526ZM128.308 51.5381L131.785 47.845L130.329 46.4739L126.852 50.1671L128.308 51.5381ZM131.057 48.1594H133.091V46.1594H131.057V48.1594ZM132.364 46.4733L128.398 50.6778L129.853 52.0502L133.819 47.8456L132.364 46.4733ZM129.125 50.364H128.858V52.364H129.125V50.364ZM128.151 50.6569L126.589 52.2194L128.003 53.6336L129.565 52.0711L128.151 50.6569ZM126.733 55.8867V44.2504H124.733V55.8867H126.733ZM125.733 45.2504H127.432V43.2504H125.733V45.2504ZM126.432 44.2504V55.8867H128.432V44.2504H126.432ZM127.432 54.8867H125.733V56.8867H127.432V54.8867ZM132.043 55.285L128.918 51.1372L127.321 52.3407L130.446 56.4885L132.043 55.285ZM128.832 52.441L130.002 51.2535L128.578 49.8495L127.408 51.037L128.832 52.441ZM128.493 51.1552L132.533 56.4904L134.127 55.2831L130.087 49.9478L128.493 51.1552ZM133.33 54.8867H131.245V56.8867H133.33V54.8867ZM145.462 56.0799L145.458 57.0799H145.462V56.0799ZM141.701 53.3185L142.637 52.967L142.637 52.967L141.701 53.3185ZM141.701 46.8413L140.767 46.4849L140.765 46.4884L141.701 46.8413ZM143.167 44.7958L142.575 43.9896L142.573 43.9912L143.167 44.7958ZM147.752 44.8015L147.155 45.6038L147.158 45.6061L147.752 44.8015ZM149.212 46.8469L148.277 47.1998L148.279 47.2046L149.212 46.8469ZM149.218 53.3242L150.154 53.6771L150.154 53.6758L149.218 53.3242ZM147.758 55.3754L148.352 56.1799L148.355 56.1776L147.758 55.3754ZM147.309 53.4094L146.444 52.9069L146.443 52.9101L147.309 53.4094ZM147.673 47.6254L146.715 47.9122L146.717 47.9187L147.673 47.6254ZM146.803 46.1026L146.123 46.8352L146.13 46.8422L146.803 46.1026ZM143.616 46.739L142.75 46.2383L142.75 46.2383L143.616 46.739ZM142.94 50.0742L141.94 50.0716V50.0742H142.94ZM143.241 52.5344L142.283 52.8213L142.285 52.8278L143.241 52.5344ZM144.11 54.0515L143.433 54.7877L143.437 54.7914L144.11 54.0515ZM145.467 55.0799C144.751 55.0769 144.198 54.8921 143.755 54.5651L142.567 56.1742C143.397 56.7867 144.378 57.0753 145.458 57.0799L145.467 55.0799ZM143.755 54.5651C143.304 54.2325 142.921 53.7226 142.637 52.967L140.765 53.6701C141.155 54.71 141.745 55.5675 142.567 56.1742L143.755 54.5651ZM142.637 52.967C142.353 52.2112 142.195 51.2555 142.195 50.0742H140.195C140.195 51.4232 140.374 52.6304 140.765 53.6701L142.637 52.967ZM142.195 50.0742C142.195 48.8969 142.353 47.9456 142.637 47.1941L140.765 46.4884C140.375 47.5248 140.195 48.7288 140.195 50.0742H142.195ZM142.635 47.1976C142.922 46.4448 143.308 45.9345 143.761 45.6004L142.573 43.9912C141.753 44.5965 141.161 45.4499 140.767 46.4849L142.635 47.1976ZM143.759 45.6021C144.207 45.2733 144.758 45.0913 145.462 45.0913V43.0913C144.386 43.0913 143.408 43.3789 142.575 43.9896L143.759 45.6021ZM145.462 45.0913C146.165 45.0913 146.712 45.2742 147.155 45.6038L148.349 43.9992C147.519 43.3818 146.54 43.0913 145.462 43.0913V45.0913ZM147.158 45.6061C147.61 45.9394 147.993 46.4484 148.277 47.1998L150.148 46.4941C149.757 45.4576 149.167 44.603 148.346 43.9969L147.158 45.6061ZM148.279 47.2046C148.564 47.9503 148.724 48.8978 148.724 50.0742H150.724C150.724 48.7279 150.542 47.5239 150.146 46.4893L148.279 47.2046ZM148.724 50.0742C148.724 51.2597 148.566 52.2172 148.282 52.9727L150.154 53.6758C150.545 52.6358 150.724 51.4266 150.724 50.0742H148.724ZM148.282 52.9714C147.999 53.7231 147.615 54.2354 147.161 54.5731L148.355 56.1776C149.174 55.5684 149.763 54.7132 150.154 53.6771L148.282 52.9714ZM147.164 54.5708C146.722 54.8973 146.172 55.0799 145.462 55.0799V57.0799C146.541 57.0799 147.521 56.7928 148.352 56.1799L147.164 54.5708ZM145.462 55.5629C146.659 55.5629 147.581 54.9403 148.175 53.9088L146.443 52.9101C146.151 53.4164 145.841 53.5629 145.462 53.5629V55.5629ZM148.174 53.912C148.749 52.9223 148.979 51.605 148.979 50.0742H146.979C146.979 51.4526 146.763 52.3587 146.444 52.9069L148.174 53.912ZM148.979 50.0742C148.979 49.0442 148.871 48.1224 148.629 47.332L146.717 47.9187C146.883 48.4616 146.979 49.1725 146.979 50.0742H148.979ZM148.631 47.3385C148.396 46.5554 148.03 45.8669 147.476 45.363L146.13 46.8422C146.334 47.0278 146.548 47.3544 146.715 47.9122L148.631 47.3385ZM147.484 45.3701C146.921 44.8471 146.23 44.5799 145.462 44.5799V46.5799C145.733 46.5799 145.935 46.6612 146.123 46.8352L147.484 45.3701ZM145.462 44.5799C144.266 44.5799 143.346 45.2079 142.75 46.2383L144.481 47.2397C144.779 46.7246 145.091 46.5799 145.462 46.5799V44.5799ZM142.75 46.2383C142.177 47.2292 141.944 48.5439 141.94 50.0716L143.94 50.0768C143.943 48.703 144.161 47.7942 144.481 47.2397L142.75 46.2383ZM141.94 50.0742C141.94 51.1066 142.046 52.0297 142.283 52.8213L144.199 52.2476C144.034 51.6983 143.94 50.9812 143.94 50.0742H141.94ZM142.285 52.8278C142.523 53.6041 142.888 54.2864 143.433 54.7877L144.787 53.3153C144.582 53.1272 144.368 52.7981 144.197 52.2411L142.285 52.8278ZM143.437 54.7914C144.004 55.3067 144.698 55.5629 145.462 55.5629V53.5629C145.174 53.5629 144.966 53.4781 144.783 53.3116L143.437 54.7914ZM152.775 53.614H151.775V54.614H152.775V53.614ZM152.775 52.1935L151.93 51.6587L151.775 51.9036V52.1935H152.775ZM157.803 44.2504V43.2504H157.253L156.959 43.7155L157.803 44.2504ZM158.923 44.2504H159.923V43.2504H158.923V44.2504ZM158.923 46.3413V47.3413H159.923V46.3413H158.923ZM158.213 46.3413V45.3413H157.661L157.367 45.8072L158.213 46.3413ZM154.616 52.0344L153.771 51.5004L153.616 51.745V52.0344H154.616ZM154.616 52.1254H153.616V53.1254H154.616V52.1254ZM161.508 52.1254H162.508V51.1254H161.508V52.1254ZM161.508 53.614V54.614H162.508V53.614H161.508ZM158.292 55.8867H157.292V56.8867H158.292V55.8867ZM158.292 53.1822L157.292 53.1646L157.292 53.1734V53.1822H158.292ZM158.303 52.5344L159.303 52.552L159.303 52.5432V52.5344H158.303ZM158.303 44.2504V43.2504H157.303V44.2504H158.303ZM159.968 44.2504H160.968V43.2504H159.968V44.2504ZM159.968 55.8867V56.8867H160.968V55.8867H159.968ZM153.775 53.614V52.1935H151.775V53.614H153.775ZM153.62 52.7284L158.648 44.7852L156.959 43.7155L151.93 51.6587L153.62 52.7284ZM157.803 45.2504H158.923V43.2504H157.803V45.2504ZM157.923 44.2504V46.3413H159.923V44.2504H157.923ZM158.923 45.3413H158.213V47.3413H158.923V45.3413ZM157.367 45.8072L153.771 51.5004L155.461 52.5685L159.058 46.8754L157.367 45.8072ZM153.616 52.0344V52.1254H155.616V52.0344H153.616ZM154.616 53.1254H161.508V51.1254H154.616V53.1254ZM160.508 52.1254V53.614H162.508V52.1254H160.508ZM161.508 52.614H152.775V54.614H161.508V52.614ZM159.292 55.8867V53.1822H157.292V55.8867H159.292ZM159.292 53.1997L159.303 52.552L157.304 52.5169L157.292 53.1646L159.292 53.1997ZM159.303 52.5344V44.2504H157.303V52.5344H159.303ZM158.303 45.2504H159.968V43.2504H158.303V45.2504ZM158.968 44.2504V55.8867H160.968V44.2504H158.968ZM159.968 54.8867H158.292V56.8867H159.968V54.8867Z" fill="black" mask="url(#path-3-outside-1_1929_8)"/>
<rect x="57.4595" y="72.1514" width="137.962" height="21.9685" rx="10.9842" fill="#D9D9D9" stroke="black"/>
<path d="M80.8495 84.7531C80.8495 87.6788 78.4699 90.0531 75.5313 90.0531C72.5927 90.0531 70.2131 87.6788 70.2131 84.7531C70.2131 81.8275 72.5927 79.4531 75.5313 79.4531C78.4699 79.4531 80.8495 81.8275 80.8495 84.7531Z" fill="#5A4C4C" stroke="black"/>
<path d="M179.759 84.7531C179.759 87.6788 177.379 90.0531 174.44 90.0531C171.502 90.0531 169.122 87.6788 169.122 84.7531C169.122 81.8275 171.502 79.4531 174.44 79.4531C177.379 79.4531 179.759 81.8275 179.759 84.7531Z" fill="#5A4C4C" stroke="black"/>
<rect x="89.8582" y="76.0049" width="70.2553" height="14.2611" fill="#5A4C4C" stroke="black"/>
<path d="M52.922 151.221L59.9082 126.846L190.064 126.846L197.05 151.221H52.922Z" fill="url(#paint1_linear_1929_8)" stroke="black"/>
</g>
<defs>
<filter id="filter0_d_1929_8" x="0.44043" y="0.720703" width="260" height="165" filterUnits="userSpaceOnUse" color-interpolation-filters="sRGB">
<feFlood flood-opacity="0" result="BackgroundImageFix"/>
<feColorMatrix in="SourceAlpha" type="matrix" values="0 0 0 0 0 0 0 0 0 0 0 0 0 0 0 0 0 0 127 0" result="hardAlpha"/>
<feOffset dx="4" dy="4"/>
<feGaussianBlur stdDeviation="5"/>
<feComposite in2="hardAlpha" operator="out"/>
<feColorMatrix type="matrix" values="0 0 0 0 1 0 0 0 0 1 0 0 0 0 1 0 0 0 0.25 0"/>
<feBlend mode="normal" in2="BackgroundImageFix" result="effect1_dropShadow_1929_8"/>
<feBlend mode="normal" in="SourceGraphic" in2="effect1_dropShadow_1929_8" result="shape"/>
</filter>
<linearGradient id="paint0_linear_1929_8" x1="126.44" y1="24.668" x2="191.539" y2="118.826" gradientUnits="userSpaceOnUse">
<stop stop-color="#727272"/>
<stop offset="1" stop-color="#D8D8D8"/>
</linearGradient>
<linearGradient id="paint1_linear_1929_8" x1="69.3189" y1="151.721" x2="197.705" y2="138.954" gradientUnits="userSpaceOnUse">
<stop stop-color="#B0AB3A"/>
<stop offset="0.871667" stop-color="#565B15"/>
</linearGradient>
</defs>
</svg>
